<?xml version="1.0" standalone="no"?>
<!DOCTYPE svg PUBLIC "-//W3C//DTD SVG 20010904//EN"
 "http://www.w3.org/TR/2001/REC-SVG-20010904/DTD/svg10.dtd">
<svg version="1.0" xmlns="http://www.w3.org/2000/svg"
 width="512.000000pt" height="512.000000pt" viewBox="0 0 512.000000 512.000000"
 preserveAspectRatio="xMidYMid meet">
<metadata>
Created by potrace 1.11, written by Peter Selinger 2001-2013
</metadata>
<g transform="translate(0.000000,512.000000) scale(0.100000,-0.100000)"
fill="#000000" stroke="none">
<path d="M783 3981 c-45 -21 -96 -69 -122 -116 -15 -27 -16 -145 -19 -1348
l-2 -1317 1920 0 1920 0 -2 1318 c-3 1224 -4 1319 -20 1348 -22 41 -71 90
-112 112 -29 16 -147 17 -1776 19 -1693 3 -1746 2 -1787 -16z"/>
<path d="M423 1094 c-21 -21 -25 -32 -20 -64 8 -64 35 -82 164 -109 165 -35
408 -89 458 -102 39 -10 372 -13 1495 -16 1626 -3 1448 -11 1879 84 238 52
267 61 293 86 37 37 38 88 3 122 l-24 25 -816 0 -815 0 0 -40 0 -40 -480 0
-480 0 0 40 0 40 -815 0 -816 0 -26 -26z"/>
</g>
</svg>
